<?xml version="1.0" encoding="utf-8"?>
<!-- Generator: Adobe Illustrator 26.2.1, SVG Export Plug-In . SVG Version: 6.00 Build 0)  -->
<svg version="1.1" id="Layer_1" xmlns="http://www.w3.org/2000/svg" xmlns:xlink="http://www.w3.org/1999/xlink" x="0px" y="0px"
	 viewBox="0 0 35.1 35.1" style="enable-background:new 0 0 35.1 35.1;" xml:space="preserve">
<style type="text/css">
	.st0{fill-rule:evenodd;clip-rule:evenodd;}
</style>
<path class="st0" d="M34.7,32.9l-8.5-8.5l0.3-0.3c2.1-2.6,3.2-5.8,3.2-9.2C29.7,6.7,23,0,14.9,0S0,6.7,0,14.9s6.7,14.9,14.9,14.9
	c3.4,0,6.6-1.1,9.2-3.2l0.3-0.3l8.5,8.5c0.5,0.5,1.4,0.5,1.8,0c0.2-0.2,0.4-0.6,0.4-0.9S35,33.1,34.7,32.9z M14.9,27.1
	c-6.8,0-12.2-5.5-12.2-12.2S8.1,2.6,14.9,2.6s12.2,5.5,12.2,12.2S21.6,27.1,14.9,27.1z"/>
</svg>
