<?xml version="1.0" encoding="utf-8"?>
<!-- Generator: Adobe Illustrator 26.2.1, SVG Export Plug-In . SVG Version: 6.00 Build 0)  -->
<svg version="1.1" id="Layer_1" xmlns="http://www.w3.org/2000/svg" xmlns:xlink="http://www.w3.org/1999/xlink" x="0px" y="0px"
	 viewBox="0 0 30.7 35.9" style="enable-background:new 0 0 30.7 35.9;" xml:space="preserve">
<g>
	<path d="M15,20.1c-4.1,0.1-7.9,1.8-10.7,4.8c-2.8,3-4.3,6.9-4.2,11l0,0.1h2.3l0-0.1c0-0.2,0-0.5,0-0.7c0.2-7.1,6-12.7,13.1-12.7
		c0.1,0,0.2,0,0.4,0c7.2,0.2,12.9,6.2,12.7,13.5l0,0.1h2.3l0-0.1c0-0.3,0-0.5,0-0.8C30.5,26.6,23.4,19.9,15,20.1z"/>
	<path d="M15.3,17.7C15.4,17.7,15.4,17.7,15.3,17.7L15.3,17.7c4.9,0,8.8-4,8.8-8.9c0-4.9-4-8.8-8.8-8.8c0,0,0,0,0,0
		c-4.9,0-8.8,4-8.8,8.9c0,2.4,0.9,4.6,2.6,6.3C10.8,16.8,13,17.7,15.3,17.7z M8.8,8.8c0-1.8,0.7-3.4,1.9-4.7
		c1.2-1.2,2.9-1.9,4.7-1.9c0,0,0,0,0,0c3.6,0,6.6,3,6.6,6.6c0,3.6-3,6.6-6.6,6.6c0,0,0,0,0,0C11.7,15.4,8.7,12.5,8.8,8.8z"/>
</g>
</svg>
